<svg width="89" height="89" viewBox="0 0 89 89" fill="none" xmlns="http://www.w3.org/2000/svg">
<path d="M44.4936 2.11824e-05C35.4147 0.00132835 26.5535 2.77953 19.099 7.96181C11.6445 13.1441 5.9535 20.4825 2.78961 28.9922C-0.374281 37.5019 -0.859626 46.7757 1.3987 55.5692C3.65703 64.3627 8.55098 72.255 15.4238 78.1871C22.2966 84.1192 30.8194 87.8072 39.8485 88.7562C48.8776 89.7052 57.981 87.8697 65.937 83.4962C73.8929 79.1226 80.3208 72.4202 84.358 64.2885C88.3953 56.1567 89.8486 46.9846 88.5231 38.003C88.4451 37.4665 88.2311 36.9588 87.9015 36.5283C87.5719 36.0979 87.1377 35.7588 86.6401 35.5435C86.1426 35.3281 85.5982 35.2437 85.0587 35.2981C84.5193 35.3525 84.0028 35.5439 83.5582 35.8543C81.8153 37.0712 79.7951 37.8316 77.6824 38.0662C75.5697 38.3007 73.432 38.0018 71.4646 37.1967C69.4973 36.3917 67.7632 35.1063 66.4209 33.458C65.0786 31.8097 64.1711 29.8512 63.7811 27.7616C63.6632 27.1297 63.3564 26.5484 62.9013 26.0945C62.4462 25.6405 61.8641 25.3352 61.2319 25.2188C59.1403 24.8299 57.1796 23.9223 55.5297 22.5792C53.8797 21.2361 52.5932 19.5004 51.7879 17.5312C50.9826 15.562 50.6844 13.4222 50.9205 11.3078C51.1566 9.19342 51.9195 7.17211 53.1393 5.42902C53.4481 4.98455 53.6383 4.46858 53.6919 3.93001C53.7455 3.39144 53.6607 2.84811 53.4455 2.3515C53.2303 1.85489 52.8918 1.42146 52.4622 1.09227C52.0326 0.763085 51.5261 0.549051 50.9906 0.470449C48.8393 0.15513 46.6678 -0.00210026 44.4936 2.11824e-05ZM44.4936 49.2678C43.2291 49.2678 42.0163 48.7655 41.1222 47.8714C40.2281 46.9772 39.7257 45.7645 39.7257 44.5C39.7257 43.2355 40.2281 42.0228 41.1222 41.1286C42.0163 40.2345 43.2291 39.7321 44.4936 39.7321C45.7581 39.7321 46.9708 40.2345 47.865 41.1286C48.7591 42.0228 49.2614 43.2355 49.2614 44.5C49.2614 45.7645 48.7591 46.9772 47.865 47.8714C46.9708 48.7655 45.7581 49.2678 44.4936 49.2678ZM31.7793 61.9821C31.7793 63.2466 31.277 64.4594 30.3828 65.3535C29.4887 66.2476 28.276 66.75 27.0114 66.75C25.7469 66.75 24.5342 66.2476 23.6401 65.3535C22.7459 64.4594 22.2436 63.2466 22.2436 61.9821C22.2436 60.7176 22.7459 59.5049 23.6401 58.6107C24.5342 57.7166 25.7469 57.2143 27.0114 57.2143C28.276 57.2143 29.4887 57.7166 30.3828 58.6107C31.277 59.5049 31.7793 60.7176 31.7793 61.9821ZM23.8329 38.1429C23.2068 38.1429 22.5868 38.0195 22.0083 37.7799C21.4298 37.5403 20.9042 37.1891 20.4615 36.7464C20.0188 36.3036 19.6676 35.778 19.428 35.1996C19.1883 34.6211 19.065 34.0011 19.065 33.375C19.065 32.7489 19.1883 32.1289 19.428 31.5504C19.6676 30.972 20.0188 30.4464 20.4615 30.0036C20.9042 29.5609 21.4298 29.2097 22.0083 28.9701C22.5868 28.7305 23.2068 28.6071 23.8329 28.6071C25.0974 28.6071 26.3101 29.1095 27.2043 30.0036C28.0984 30.8978 28.6007 32.1105 28.6007 33.375C28.6007 34.6395 28.0984 35.8522 27.2043 36.7464C26.3101 37.6405 25.0974 38.1429 23.8329 38.1429ZM60.3864 65.1607C60.3864 66.4252 59.8841 67.6379 58.99 68.5321C58.0958 69.4262 56.8831 69.9285 55.6186 69.9285C54.3541 69.9285 53.1413 69.4262 52.2472 68.5321C51.353 67.6379 50.8507 66.4252 50.8507 65.1607C50.8507 63.8962 51.353 62.6835 52.2472 61.7893C53.1413 60.8952 54.3541 60.3928 55.6186 60.3928C56.8831 60.3928 58.0958 60.8952 58.99 61.7893C59.8841 62.6835 60.3864 63.8962 60.3864 65.1607Z" fill="#9B1418"/>
</svg>
