<svg width="41" height="41" viewBox="0 0 41 41" fill="none" xmlns="http://www.w3.org/2000/svg">
<path d="M14.4 14.4545H27.6V18.7745L21 16.6364L14.4 18.7745M12.134 28.6364H12.2C13.96 28.6364 15.5 27.6764 16.6 26.4545C17.7 27.6764 19.24 28.6364 21 28.6364C22.76 28.6364 24.3 27.6764 25.4 26.4545C26.5 27.6764 28.04 28.6364 29.8 28.6364H29.855L31.945 21.3382C32.033 21.0655 32 20.76 31.879 20.4982C31.736 20.2364 31.505 20.04 31.219 19.9527L29.8 19.4945V14.4545C29.8 13.8759 29.5682 13.3209 29.1556 12.9118C28.7431 12.5026 28.1835 12.2727 27.6 12.2727H24.3V9H17.7V12.2727H14.4C13.8165 12.2727 13.2569 12.5026 12.8444 12.9118C12.4318 13.3209 12.2 13.8759 12.2 14.4545V19.4945L10.781 19.9527C10.495 20.04 10.264 20.2364 10.121 20.4982C10 20.76 9.967 21.0655 10.055 21.3382M29.8 30.8182C28.271 30.8182 26.742 30.3055 25.4 29.3673C22.716 31.2327 19.284 31.2327 16.6 29.3673C15.258 30.3055 13.729 30.8182 12.2 30.8182H10V33H12.2C13.707 33 15.214 32.6182 16.6 31.9091C19.35 33.3273 22.65 33.3273 25.4 31.9091C26.786 32.6182 28.282 33 29.8 33H32V30.8182H29.8Z" fill="#001D35"/>
<circle cx="20.5" cy="20.5" r="19.5" stroke="#001D35" stroke-width="2"/>
</svg>
