<svg width="62" height="62" viewBox="0 0 62 62" fill="none" xmlns="http://www.w3.org/2000/svg">
<path d="M42.625 23.25C42.625 26.3331 41.4002 29.29 39.2201 31.4701C37.04 33.6502 34.0831 34.875 31 34.875C27.9169 34.875 24.96 33.6502 22.7799 31.4701C20.5998 29.29 19.375 26.3331 19.375 23.25C19.375 20.1669 20.5998 17.21 22.7799 15.0299C24.96 12.8498 27.9169 11.625 31 11.625C34.0831 11.625 37.04 12.8498 39.2201 15.0299C41.4002 17.21 42.625 20.1669 42.625 23.25Z" fill="#001D35"/>
<path fill-rule="evenodd" clip-rule="evenodd" d="M0 31C0 22.7783 3.26606 14.8933 9.07969 9.07969C14.8933 3.26606 22.7783 0 31 0C39.2217 0 47.1067 3.26606 52.9203 9.07969C58.7339 14.8933 62 22.7783 62 31C62 39.2217 58.7339 47.1067 52.9203 52.9203C47.1067 58.7339 39.2217 62 31 62C22.7783 62 14.8933 58.7339 9.07969 52.9203C3.26606 47.1067 0 39.2217 0 31ZM31 3.875C25.8919 3.87527 20.8877 5.31791 16.5633 8.03686C12.239 10.7558 8.77022 14.6406 6.55636 19.244C4.3425 23.8474 3.4735 28.9824 4.04937 34.058C4.62524 39.1335 6.62258 43.9433 9.8115 47.9338C12.5627 43.5007 18.6194 38.75 31 38.75C43.3806 38.75 49.4334 43.4969 52.1885 47.9338C55.3774 43.9433 57.3748 39.1335 57.9506 34.058C58.5265 28.9824 57.6575 23.8474 55.4436 19.244C53.2298 14.6406 49.7611 10.7558 45.4367 8.03686C41.1123 5.31791 36.1081 3.87527 31 3.875Z" fill="#001D35"/>
</svg>
